<?xml version="1.0" standalone="no"?>
<!DOCTYPE svg PUBLIC "-//W3C//DTD SVG 20010904//EN"
 "http://www.w3.org/TR/2001/REC-SVG-20010904/DTD/svg10.dtd">
<svg version="1.0" xmlns="http://www.w3.org/2000/svg"
 width="512.000000pt" height="512.000000pt" viewBox="0 0 512.000000 512.000000"
 preserveAspectRatio="xMidYMid meet">

<g transform="translate(0.000000,512.000000) scale(0.100000,-0.100000)"
fill="#000" stroke="none">
<path d="M2160 5103 c-356 -63 -675 -315 -811 -641 -57 -139 -80 -250 -86
-425 -6 -151 -7 -159 -28 -167 -38 -14 -87 -63 -106 -105 -25 -55 -28 -375 -4
-433 36 -84 100 -122 207 -122 l74 0 11 -133 c22 -250 116 -460 277 -617 l46
-44 0 -211 -1 -210 -427 -184 c-235 -101 -487 -213 -561 -248 -128 -61 -139
-69 -231 -161 -78 -79 -105 -114 -142 -187 -91 -178 -91 -176 -96 -702 l-3
-462 25 -26 c30 -30 65 -32 97 -6 l24 19 5 459 c6 444 6 460 29 528 47 145
142 274 257 350 42 28 588 275 721 326 19 7 26 0 64 -64 23 -40 50 -77 58 -84
38 -29 103 -5 115 43 5 19 -3 44 -34 100 l-41 74 77 35 c43 20 81 34 84 33 15
-6 489 -373 490 -379 0 -5 -117 -112 -286 -261 -21 -19 -21 -18 -97 111 -76
129 -96 151 -137 151 -28 0 -70 -43 -70 -72 0 -23 178 -337 213 -375 13 -15
32 -23 53 -23 27 0 54 20 176 129 78 71 145 125 146 120 2 -6 -47 -271 -108
-590 -121 -624 -120 -616 -66 -640 32 -15 72 -4 90 24 8 12 53 225 101 472
100 519 107 553 111 540 2 -5 46 -233 99 -505 88 -459 97 -497 121 -517 40
-36 85 -29 109 17 13 25 5 74 -95 596 -61 313 -113 580 -116 593 l-5 25 30
-25 c16 -13 84 -72 150 -131 103 -92 126 -108 154 -108 20 0 40 7 49 18 9 9
102 166 208 347 106 182 198 336 205 344 12 12 59 -6 312 -114 164 -70 328
-143 365 -161 81 -41 172 -115 216 -178 l33 -46 -419 0 c-352 0 -427 -2 -463
-15 -52 -19 -93 -55 -122 -110 -22 -39 -22 -49 -22 -460 0 -231 3 -436 8 -456
10 -47 71 -117 121 -140 39 -17 81 -19 697 -19 l655 0 55 28 c40 20 61 39 84
76 l30 49 0 446 0 446 -28 47 c-18 31 -44 57 -75 75 -45 27 -54 28 -197 32
l-150 3 -55 85 c-61 94 -143 176 -235 235 -33 21 -293 138 -577 260 l-518 221
0 202 0 201 36 35 c20 18 57 61 83 94 133 169 197 339 210 560 l6 110 86 5
c108 7 154 33 193 111 25 51 26 60 26 219 0 98 -5 181 -11 201 -17 51 -55 97
-98 119 l-38 19 -7 143 c-3 79 -15 184 -25 233 -92 444 -464 791 -915 854
-106 15 -284 12 -386 -6z m401 -149 c151 -28 251 -70 376 -156 78 -54 180
-156 233 -233 45 -65 116 -218 134 -291 19 -75 36 -225 35 -319 0 -75 -5 -72
-33 28 -36 123 -156 250 -282 297 -47 17 -62 19 -85 10 -38 -16 -57 -64 -38
-98 15 -27 21 -31 92 -63 60 -27 127 -93 158 -156 l24 -48 0 -465 c0 -522 0
-519 -76 -677 -134 -279 -412 -453 -723 -453 -182 0 -319 42 -463 142 -189
131 -314 337 -342 568 -15 113 -14 749 0 825 31 168 162 279 329 280 69 0 85
-4 200 -54 170 -73 269 -90 400 -68 106 18 218 68 237 106 14 29 0 77 -27 91
-29 15 -53 12 -114 -15 -129 -57 -250 -54 -403 10 -153 64 -196 77 -264 83
-216 16 -433 -138 -494 -350 -9 -32 -19 -58 -22 -58 -3 0 -3 64 -1 143 11 284
99 490 289 673 108 103 193 156 337 210 138 53 362 69 523 38z m-1151 -1404
l0 -190 -63 0 c-36 0 -68 5 -75 12 -8 8 -12 61 -12 174 0 157 1 163 22 178 14
10 44 16 75 16 l53 0 0 -190z m2060 170 c18 -18 20 -33 20 -172 0 -185 -2
-188 -97 -188 l-63 0 0 190 0 190 60 0 c47 0 64 -4 80 -20z m-1498 -1455 c145
-66 213 -80 403 -80 190 0 258 14 401 80 l74 34 0 -188 0 -188 -226 -174
c-125 -96 -233 -178 -241 -182 -9 -6 -86 48 -247 173 -196 152 -235 186 -240
212 -6 32 -9 348 -2 348 2 0 37 -16 78 -35z m1101 -455 c39 -17 73 -32 75 -34
2 -3 -331 -579 -343 -594 -4 -4 -305 266 -306 275 -2 7 482 382 494 383 4 0
40 -14 80 -30z m1591 -781 l26 -20 0 -408 c0 -396 -1 -408 -20 -429 l-21 -22
-632 0 c-556 0 -635 2 -655 16 l-22 15 0 419 0 419 22 15 c20 14 98 16 649 16
618 0 627 0 653 -21z"/>
<path d="M3524 908 c-40 -19 -44 -47 -44 -313 0 -269 4 -294 47 -314 34 -16
47 -14 77 10 25 20 26 24 26 130 l0 109 100 0 100 0 0 -109 c0 -106 1 -110 26
-130 30 -24 43 -26 77 -10 43 20 47 45 47 315 0 285 -4 307 -61 319 -23 5 -38
2 -58 -12 -25 -19 -26 -25 -29 -122 l-3 -101 -99 0 -100 0 0 99 c0 96 -1 100
-26 120 -29 23 -48 25 -80 9z"/>
<path d="M4155 895 l-25 -24 0 -276 0 -276 25 -24 c29 -30 64 -32 96 -6 20 16
25 31 29 89 l5 70 73 -84 c40 -46 83 -86 96 -90 52 -13 105 39 92 91 -3 11
-33 51 -66 88 l-61 69 39 28 c108 78 120 213 28 305 -51 51 -98 65 -215 65
-84 0 -94 -2 -116 -25z m225 -145 c11 -11 20 -27 20 -35 0 -29 -38 -55 -80
-55 l-40 0 0 55 0 55 40 0 c27 0 47 -7 60 -20z"/>
<path d="M1140 663 c-8 -3 -23 -12 -32 -21 -16 -14 -18 -42 -18 -308 0 -289 0
-294 22 -314 44 -41 111 -13 123 52 4 18 5 149 3 290 -3 242 -4 259 -23 277
-23 22 -53 32 -75 24z"/>
</g>
</svg>
